HIERARCHY
ROOT Hips
{
	OFFSET 0.000000 0.000000 0.000000 
	CHANNELS 6 Xposition Yposition Zposition Zrotation Yrotation Xrotation
	JOINT LeftUpLeg
	{
		OFFSET 1.363060 -1.794630 0.839290 
		CHANNELS 3 Zrotation Yrotation Xrotation
		JOINT LeftLeg
		{
			OFFSET 2.448110 -6.726130 0.000000 
			CHANNELS 3 Zrotation Yrotation Xrotation
			JOINT LeftFoot
			{
				OFFSET 2.562200 -7.039590 0.000000 
				CHANNELS 3 Zrotation Yrotation Xrotation
				JOINT LeftToeBase
				{
					OFFSET 0.157640 -0.433110 2.322550 
					CHANNELS 3 Zrotation Yrotation Xrotation
					End Site
					{
						OFFSET 0.000000 0.000000 0.000000 
					}
				}
			}
		}
	}
	JOINT RightUpLeg
	{
		OFFSET -1.305520 -1.794630 0.839290 
		CHANNELS 3 Zrotation Yrotation Xrotation
		JOINT RightLeg
		{
			OFFSET -2.542530 -6.985550 0.000000 
			CHANNELS 3 Zrotation Yrotation Xrotation
			JOINT RightFoot
			{
				OFFSET -2.568260 -7.056230 0.000000 
				CHANNELS 3 Zrotation Yrotation Xrotation
				JOINT RightToeBase
				{
					OFFSET -0.164730 -0.452590 2.363150 
					CHANNELS 3 Zrotation Yrotation Xrotation
					End Site
					{
						OFFSET 0.000000 0.000000 0.000000 
					}
				}
			}
		}
	}
	JOINT Spine
	{
		OFFSET 0.028270 2.035590 -0.193380 
		CHANNELS 3 Zrotation Yrotation Xrotation
		JOINT Spine1
		{
			OFFSET 0.056720 2.048850 -0.042750 
			CHANNELS 3 Zrotation Yrotation Xrotation
			JOINT Neck1
			{
				OFFSET -0.054170 1.746240 0.172020 
				CHANNELS 3 Zrotation Yrotation Xrotation
				JOINT Head
				{
					OFFSET 0.104070 1.761360 -0.123970 
					CHANNELS 3 Zrotation Yrotation Xrotation
					End Site
					{
						OFFSET 0.000000 0.000000 0.000000 
					}
				}
			}
			JOINT LeftArm
			{
				OFFSET 3.362410 1.200890 -0.311210 
				CHANNELS 3 Zrotation Yrotation Xrotation
				JOINT LeftForeArm
				{
					OFFSET 4.983000 -0.000000 -0.000000 
					CHANNELS 3 Zrotation Yrotation Xrotation
					JOINT LeftHand
					{
						OFFSET 3.483560 -0.000000 -0.000000 
						CHANNELS 3 Zrotation Yrotation Xrotation
						JOINT LeftHandIndex1
						{
							OFFSET 0.715260 -0.000000 -0.000000 
							CHANNELS 3 Zrotation Yrotation Xrotation
							End Site
							{
								OFFSET 0.000000 0.000000 0.000000 
							}
						}
					}
				}
			}
			JOINT RightArm
			{
				OFFSET -3.136600 1.374050 -0.404650 
				CHANNELS 3 Zrotation Yrotation Xrotation
				JOINT RightForeArm
				{
					OFFSET -5.241900 -0.000000 -0.000000 
					CHANNELS 3 Zrotation Yrotation Xrotation
					JOINT RightHand
					{
						OFFSET -3.444170 -0.000000 -0.000000 
						CHANNELS 3 Zrotation Yrotation Xrotation
						JOINT RightHandIndex1
						{
							OFFSET -0.622530 -0.000000 -0.000000 
							CHANNELS 3 Zrotation Yrotation Xrotation
							End Site
							{
								OFFSET 0.000000 0.000000 0.000000 
							}
						}
					}
				}
			}
		}
	}
}
MOTION
Frames: 18
Frame Time: 0.041667
-7.897258 18.154503 0.819823 -2.134803 36.260201 2.056556 -13.117439 -8.952134 -15.288364 0.645277 7.043740 24.154620 -3.700549 16.454247 -16.810125 0.418100 4.150400 11.500300 16.033793 8.763501 -4.444335 -2.785772 -7.879357 28.799451 5.555922 -20.263742 -11.976201 -0.562400 4.803400 -13.348700 -10.043353 1.430782 11.669925 3.816882 1.079108 -7.846817 6.988996 -0.006824 29.121195 3.550700 0.411700 7.951000 -79.558905 -4.273805 25.030567 13.864446 -20.715947 -2.746183 -0.803022 -1.204912 5.199213 -7.125000 0.000000 0.000000 76.928689 -7.382204 15.413827 -11.955641 14.170128 -1.777567 1.512641 -0.315146 21.412914 7.125000 0.000000 0.000000 
-7.852225 18.153242 0.808370 -2.239486 37.054824 1.938900 -13.183520 -8.910362 -15.411949 0.692836 7.102550 24.344099 -3.583503 15.930980 -16.258641 0.387400 3.997000 11.068400 16.011572 8.344470 -4.588639 -2.877644 -7.993705 29.185868 5.621931 -20.439850 -11.764546 -0.596900 4.945800 -13.754100 -9.853867 1.517613 12.090410 3.694887 1.106567 -7.799642 7.648506 0.167325 29.628849 3.794500 0.569800 8.116500 -79.652278 -4.471795 25.244618 14.060999 -21.005844 -2.831902 -0.791576 -1.205811 5.064417 -7.125000 0.000000 0.000000 76.937273 -7.442070 15.411475 -12.094714 14.406020 -1.831916 1.507175 -0.293975 21.166707 7.125000 0.000000 0.000000 
-7.811947 18.152465 0.800509 -2.619375 37.951471 1.608783 -13.005126 -8.795056 -15.605283 0.751159 7.189097 24.571936 -3.474939 15.361244 -15.481643 0.358100 3.844300 10.639100 16.319289 8.069334 -4.572775 -2.970625 -8.092364 29.599456 5.686202 -20.677901 -11.929341 -0.608600 4.993400 -13.889600 -9.509100 1.557629 12.522967 3.529001 1.106985 -7.738212 7.811495 0.343600 29.639125 3.854100 0.678100 8.101500 -79.677426 -4.657549 25.493332 14.254429 -21.283669 -2.916927 -0.777435 -1.203745 4.981405 -7.125000 0.000000 0.000000 76.951251 -7.493850 15.570721 -12.220823 14.612165 -1.883026 1.491717 -0.259765 20.680213 7.125000 0.000000 0.000000 
-7.773125 18.146642 0.786533 -2.884891 38.835611 1.418760 -12.932481 -8.775286 -15.801300 0.795578 7.255128 24.737757 -3.398922 14.927071 -14.770371 0.325800 3.668900 10.147000 16.512994 7.700832 -4.705941 -3.081345 -8.221609 30.079459 5.767928 -20.943328 -11.921811 -0.639200 5.115000 -14.236800 -9.334217 1.637434 12.571846 3.391987 1.141192 -7.847734 7.850653 0.450083 29.825056 3.861600 0.746600 8.106800 -79.705609 -4.600426 26.044066 14.495491 -21.639013 -3.024125 -0.773870 -1.215071 4.492237 -7.125000 0.000000 0.000000 76.954051 -7.747060 15.604204 -12.328381 14.807495 -1.930154 1.469622 -0.232950 20.268365 7.125000 0.000000 0.000000 
-7.735662 18.138198 0.775274 -2.930900 39.634960 1.375868 -13.030821 -8.743209 -15.945789 0.835078 7.313810 24.891679 -3.319523 14.523154 -14.140588 0.293500 3.483600 9.628200 16.524320 7.375311 -4.875260 -3.209104 -8.382760 30.615250 5.892071 -21.309983 -11.734773 -0.641200 5.122700 -14.259000 -9.504647 1.805886 12.244815 3.338306 1.230501 -8.141547 7.794191 0.481451 30.343102 3.821300 0.785000 8.194300 -79.665259 -4.277262 26.853969 14.767720 -22.051420 -3.146740 -0.779827 -1.248474 3.793663 -7.125000 0.000000 0.000000 77.097804 -8.269910 15.321302 -12.449805 15.041795 -1.982386 1.441355 -0.187544 20.054801 7.125000 0.000000 0.000000 
-7.696258 18.135092 0.762172 -2.958241 40.244717 1.355778 -13.150110 -8.666050 -16.055921 0.861124 7.348420 24.982923 -3.256687 14.199705 -13.610223 0.265800 3.316600 9.161400 16.459796 7.543408 -5.041077 -3.332320 -8.564282 31.232036 5.863821 -21.302104 -11.986606 -0.509100 4.573600 -12.696400 -9.664605 2.004971 12.055508 3.257395 1.327810 -8.362534 7.859815 0.551152 30.835624 3.836800 0.848800 8.292000 -79.616069 -4.050242 27.429507 14.984410 -22.384922 -3.244321 -0.810821 -1.286701 3.248422 -7.125000 0.000000 0.000000 77.241795 -8.645994 15.223309 -12.567177 15.250518 -2.025816 1.474551 -0.168221 19.564221 7.125000 0.000000 0.000000 
-7.650545 18.130531 0.744217 -2.928472 40.774968 1.400838 -13.341074 -8.652028 -16.154562 0.888101 7.376260 25.084850 -3.195586 13.922347 -13.225715 0.238900 3.145800 8.685000 16.280677 7.773995 -5.296449 -3.467020 -8.773985 31.947601 5.712865 -20.952849 -12.344810 -0.369700 3.905300 -10.810500 -9.735916 2.193513 12.098618 3.143264 1.410226 -8.416869 8.094816 0.659390 31.176236 3.925500 0.936300 8.362900 -79.623702 -4.030679 27.416851 15.076092 -22.526351 -3.286293 -0.828574 -1.289096 3.434476 -7.125000 0.000000 0.000000 77.253246 -8.834054 15.439227 -12.686410 15.452588 -2.071010 1.549157 -0.209984 18.983778 7.125000 0.000000 0.000000 
-7.595127 18.117525 0.738296 -2.520332 41.609126 1.615052 -13.835924 -8.616118 -16.096806 0.910101 7.370498 25.141988 -3.065402 13.401900 -12.705520 0.211100 2.957900 8.161500 15.826071 7.374786 -5.550713 -3.631460 -9.008244 32.680300 5.722567 -20.985963 -12.141987 -0.382600 3.972500 -10.999300 -9.982793 2.280213 12.267515 3.206414 1.442581 -8.340919 8.204819 0.780112 31.534339 3.975000 1.019500 8.451600 -79.704224 -4.028845 27.352607 15.156159 -22.628281 -3.325874 -0.787641 -1.254043 3.686403 -7.125000 0.000000 0.000000 77.355482 -9.112272 15.080692 -12.913310 15.844473 -2.168009 1.560401 -0.240420 19.274854 7.125000 0.000000 0.000000 
-7.564748 18.113255 0.713353 -2.923745 42.025612 1.345225 -13.621820 -8.777474 -16.137049 0.908114 7.380648 25.135928 -2.988012 13.103150 -12.502558 0.230900 3.092600 8.536600 16.185100 7.658132 -5.862740 -3.851151 -9.250563 33.539936 6.009292 -21.825804 -11.778268 -0.487900 4.479000 -12.428300 -9.796656 2.528952 12.224155 2.986043 1.559997 -8.606400 8.318544 0.879851 31.905574 4.009500 1.101900 8.517500 -79.739147 -4.022075 27.569852 15.254154 -22.772185 -3.377388 -0.739669 -1.235335 3.496885 -7.125000 0.000000 0.000000 77.514391 -9.348707 14.393914 -13.128582 16.209217 -2.256610 1.546519 -0.236619 19.719345 7.125000 0.000000 0.000000 
-7.483611 18.107917 0.729367 -2.555712 43.063641 1.416178 -14.122706 -8.599377 -15.878535 0.924979 7.355853 25.162698 -2.756954 12.240648 -11.912925 0.222100 3.033800 8.372800 15.732246 6.790676 -6.141046 -4.090462 -9.540135 34.459426 6.178525 -22.270922 -11.020190 -0.653400 5.170500 -14.395500 -10.006514 2.567547 12.831007 3.017423 1.543332 -8.130183 8.464792 1.008980 31.918897 4.050600 1.191300 8.537600 -79.775178 -4.095710 27.932338 15.352125 -22.894885 -3.420543 -0.759999 -1.244217 2.885850 -7.125000 0.000000 0.000000 77.517550 -9.317429 14.641263 -13.164190 16.253244 -2.271707 1.557863 -0.226390 19.144126 7.125000 0.000000 0.000000 
-7.438771 18.105199 0.718885 -2.154239 43.712911 1.480736 -14.590389 -8.507041 -15.695197 0.941406 7.341493 25.197086 -2.648116 11.810102 -11.502706 0.214800 2.983900 8.234000 15.344059 6.694257 -6.455413 -4.342171 -9.852252 35.472015 6.341385 -22.767773 -10.617584 -0.748900 5.527700 -15.420000 -10.144069 2.729635 13.124919 3.114722 1.620128 -8.176675 8.560589 1.120308 32.155743 4.078000 1.274500 8.594500 -79.822580 -4.111599 28.225861 15.440915 -23.025969 -3.460787 -0.787373 -1.254507 2.322238 -7.125000 0.000000 0.000000 77.422789 -9.350020 15.327501 -13.216551 16.357114 -2.302734 1.572875 -0.209351 18.294595 7.125000 0.000000 0.000000 
-7.404220 18.102288 0.700445 -2.211780 44.206166 1.359621 -14.669605 -8.590116 -15.613808 0.939593 7.324517 25.159544 -2.617173 11.641222 -11.191814 0.208200 2.937700 8.105300 15.367401 7.055510 -6.803772 -4.593389 -10.143341 36.505249 6.477833 -23.230070 -10.536766 -0.735100 5.477400 -15.275500 -10.059954 2.947539 13.277168 3.042605 1.725766 -8.338026 8.713653 1.184515 32.565163 4.135200 1.341300 8.701500 -79.895247 -4.127363 28.318218 15.559792 -23.203123 -3.514919 -0.795012 -1.298207 2.275299 -7.125000 0.000000 0.000000 77.472868 -9.455350 15.253096 -13.386584 16.650264 -2.386312 1.548459 -0.226491 18.202580 7.125000 0.000000 0.000000 
-7.362389 18.098697 0.693845 -2.390373 44.744415 1.195880 -14.651690 -8.749474 -15.497090 0.940048 7.316804 25.142966 -2.583719 11.478644 -10.950739 0.193100 2.829800 7.805200 15.513152 7.416326 -7.113716 -4.865791 -10.438037 37.587361 6.632201 -23.737931 -10.348185 -0.666900 5.222500 -14.544200 -9.962069 3.116781 13.350578 2.935687 1.803925 -8.421992 8.904407 1.281535 32.965629 4.212200 1.425600 8.794300 -79.897257 -4.016605 28.229351 15.623269 -23.303036 -3.544980 -0.790293 -1.330172 2.472419 -7.125000 0.000000 0.000000 77.513140 -9.642801 15.235846 -13.552792 16.932505 -2.467940 1.514037 -0.204729 18.119108 7.125000 0.000000 0.000000 
-7.319103 18.093650 0.687537 -2.414536 45.314944 1.076543 -14.768926 -8.833220 -15.336720 0.949423 7.315939 25.164564 -2.530939 11.249830 -10.666438 0.172900 2.679000 7.386200 15.503531 7.623556 -7.435982 -5.158966 -10.739832 38.658524 6.841132 -24.360792 -9.640062 -0.593100 4.930700 -13.710900 -9.965011 3.263561 13.422760 2.879272 1.870993 -8.513815 8.974121 1.408777 33.335212 4.235600 1.520000 8.873800 -79.799273 -3.864192 27.677596 15.480577 -23.108475 -3.485167 -0.749185 -1.251592 3.275440 -7.125000 0.000000 0.000000 77.429682 -9.837297 15.792126 -13.720229 17.218392 -2.546037 1.520976 -0.127267 17.451040 7.125000 0.000000 0.000000 
-7.274360 18.086759 0.678122 -2.257158 45.921574 0.984533 -15.043259 -8.887392 -15.073389 0.960477 7.306037 25.185260 -2.484240 11.045547 -10.391788 0.148500 2.483000 6.842600 15.330172 7.807706 -7.725200 -5.462574 -11.051508 39.770463 7.009761 -24.888162 -8.978512 -0.494700 4.509600 -12.514800 -10.113942 3.455721 13.625583 2.834937 1.951325 -8.587811 9.007551 1.463939 33.601890 4.222400 1.579900 8.935700 -79.719866 -3.755264 27.964100 15.520273 -23.180946 -3.505808 -0.759842 -1.275247 2.914205 -7.125000 0.000000 0.000000 77.417621 -9.975637 16.240306 -13.909378 17.529436 -2.628142 1.567122 -0.080446 16.804671 7.125000 0.000000 0.000000 
-7.229424 18.079868 0.671134 -2.159203 46.456536 0.875668 -15.255033 -8.834999 -14.860285 0.966201 7.295522 25.184547 -2.422491 10.785001 -10.080155 0.134400 2.362600 6.508800 15.220097 8.106092 -8.040294 -5.779051 -11.368142 40.949498 7.144098 -25.344765 -8.526365 -0.402300 4.072100 -11.279500 -10.356069 3.678446 13.765773 2.737605 2.038636 -8.638996 9.065547 1.500524 33.754079 4.202800 1.632300 8.946000 -79.653495 -3.735250 28.013314 15.439801 -23.078472 -3.468538 -0.784709 -1.289323 2.819081 -7.125000 0.000000 0.000000 77.528144 -10.120283 16.480716 -14.084442 17.806528 -2.708990 1.585401 -0.060466 16.397354 7.125000 0.000000 0.000000 
-7.185749 18.075792 0.662982 -2.125648 46.945681 0.832876 -15.407143 -8.710027 -14.804629 0.973531 7.294919 25.203518 -2.302105 10.327624 -9.737290 0.141400 2.423700 6.678100 15.148776 8.464744 -8.539157 -6.119315 -11.694203 42.162448 7.341491 -25.999693 -7.909034 -0.365600 3.884300 -10.751300 -10.427087 3.780553 13.772859 2.717009 2.084550 -8.678911 9.080920 1.690601 34.004798 4.200600 1.751800 8.960800 -79.528522 -3.381184 28.101967 15.552730 -23.250438 -3.524029 -0.768350 -1.296536 2.508287 -7.125000 0.000000 0.000000 77.506028 -10.177496 16.709415 -14.209568 18.015868 -2.784068 1.534600 -0.056882 16.100463 7.125000 0.000000 0.000000 
-7.142171 18.071521 0.653082 -1.957829 47.518549 0.891203 -15.667179 -8.610258 -14.760394 0.987310 7.297205 25.252571 -2.169994 9.840203 -9.430815 0.145100 2.454800 6.764200 14.986877 8.791577 -9.099522 -6.479295 -12.029824 43.418270 7.574147 -26.783002 -7.300277 -0.313000 3.596400 -9.943800 -10.523657 3.811636 13.817950 2.737157 2.098855 -8.726033 9.361324 1.878192 34.382164 4.310900 1.893600 9.027900 -79.389938 -3.029329 28.139224 15.664342 -23.425279 -3.580662 -0.746811 -1.302117 2.208447 -7.125000 0.000000 0.000000 77.455408 -10.145218 16.981152 -14.320617 18.196275 -2.846708 1.507383 -0.044204 15.953581 7.125000 0.000000 0.000000 
